<?xml version="1.0" encoding="iso-8859-1"?>
<!-- Generator: Adobe Illustrator 16.0.0, SVG Export Plug-In . SVG Version: 6.00 Build 0)  -->
<!DOCTYPE svg PUBLIC "-//W3C//DTD SVG 1.1//EN" "http://www.w3.org/Graphics/SVG/1.1/DTD/svg11.dtd">
<svg version="1.1" id="Capa_1" xmlns="http://www.w3.org/2000/svg" xmlns:xlink="http://www.w3.org/1999/xlink" x="0px" y="0px"
	 width="509.823px" height="509.822px" viewBox="0 0 509.823 509.822" style="enable-background:new 0 0 509.823 509.822;"
	 xml:space="preserve" fill="#EEE">
<g>
	<path d="M509.823,254.911c0,140.559-114.354,254.911-254.911,254.911C114.353,509.822,0,395.47,0,254.911h44.97
		c0,115.758,94.182,209.949,209.942,209.949c115.757,0,209.938-94.191,209.938-209.949c0-115.76-94.182-209.941-209.938-209.941
		c-50.893,0-99.505,18.291-137.719,51.558l45.908,45.903L20.507,165.208L43.283,22.633l42.057,42.05
		C132.097,22.972,192.071,0,254.912,0C395.469,0,509.823,114.353,509.823,254.911z M409.653,251.164L255.002,96.513L100.347,251.164
		l154.655,154.652L409.653,251.164z"/>
</g>
<g>
</g>
<g>
</g>
<g>
</g>
<g>
</g>
<g>
</g>
<g>
</g>
<g>
</g>
<g>
</g>
<g>
</g>
<g>
</g>
<g>
</g>
<g>
</g>
<g>
</g>
<g>
</g>
<g>
</g>
</svg>
